<svg width="0" height="0" class="hidden">
  <symbol fill="none" xmlns="http://www.w3.org/2000/svg" viewBox="0 0 75 68" id="logo">
    <path d="M15.5954 49.7407C13.917 49.7405 12.3058 50.3408 11.1094 51.4121C9.91292 52.4834 9.22715 53.9399 9.2 55.4673C9.18626 56.2395 9.34154 57.0066 9.65679 57.7237C9.97203 58.4408 10.4409 59.0936 11.0362 59.6442C11.6314 60.1947 12.3411 60.6319 13.1238 60.9303C13.9066 61.2287 14.7467 61.3823 15.5954 61.3822C15.5954 61.3822 67.442 61.3684 67.442 61.3525V49.7704C67.442 49.7534 15.5954 49.7407 15.5954 49.7407Z" fill="white"></path>
    <path d="M37.2094 45.5075C47.4844 45.5075 55.8141 39.8216 55.8141 32.8077C55.8141 25.7938 47.4844 20.1079 37.2094 20.1079C26.9343 20.1079 18.6047 25.7938 18.6047 32.8077C18.6047 39.8216 26.9343 45.5075 37.2094 45.5075Z" fill="#9A5706"></path>
    <path d="M36.9478 6.35209C33.2381 6.48579 29.732 7.93128 27.1751 10.3812C24.6181 12.8311 23.2121 16.0922 23.2559 19.471V24.3413C24.6535 24.9773 25.8289 25.955 26.6504 27.1647C27.4719 28.3745 27.907 29.7686 27.907 31.1907V36.7511C27.8759 38.9362 28.7536 41.0512 30.3642 42.6719C31.9747 44.2925 34.1989 45.2991 36.5908 45.4896C37.8617 45.5667 39.1366 45.4054 40.3362 45.0157C41.5359 44.626 42.6348 44.0162 43.565 43.2242C44.4951 42.4321 45.2366 41.4746 45.7435 40.411C46.2504 39.3474 46.5118 38.2004 46.5117 37.0411V31.1907C46.5118 29.7686 46.9469 28.3745 47.7684 27.1647C48.5899 25.955 49.7653 24.9773 51.1629 24.3413V19.0497C51.1629 17.3619 50.7933 15.6911 50.0756 14.1348C49.358 12.5785 48.3066 11.168 46.9831 9.98577C45.6596 8.80355 44.0905 7.8733 42.3674 7.24939C40.6443 6.62549 38.8019 6.32044 36.9478 6.35209Z" fill="#C68C47"></path>
    <path d="M48.3885 12.2774C46.2688 12.2868 44.1756 12.7068 42.2481 13.5095C40.3206 14.3122 38.6029 15.4792 37.2094 16.9329C37.2094 16.9329 37.7047 7.4081 45.2059 7.4081C52.6315 7.4081 55.8141 4.23315 55.8141 4.23315C55.8141 4.23315 55.8141 12.2774 48.3885 12.2774ZM26.0303 12.2774C28.1499 12.2868 30.2431 12.7068 32.1706 13.5095C34.0981 14.3122 35.8158 15.4792 37.2094 16.9329C37.2094 16.9329 36.714 7.4081 29.2128 7.4081C21.7872 7.4081 18.6047 4.23315 18.6047 4.23315C18.6047 4.23315 18.6047 12.2774 26.0303 12.2774Z" fill="#9A5706"></path>
    <path d="M44.1861 22.2247C43.7262 22.2247 43.2766 22.1006 42.8941 21.868C42.5117 21.6354 42.2136 21.3048 42.0376 20.9181C41.8616 20.5313 41.8155 20.1057 41.9052 19.6952C41.995 19.2846 42.2165 18.9074 42.5417 18.6114C42.8669 18.3154 43.2813 18.1138 43.7324 18.0321C44.1836 17.9505 44.6512 17.9924 45.0761 18.1526C45.5011 18.3128 45.8643 18.5841 46.1198 18.9321C46.3753 19.2802 46.5117 19.6895 46.5117 20.1081C46.5111 20.6693 46.2659 21.2073 45.8299 21.6041C45.3939 22.001 44.8027 22.2242 44.1861 22.2247ZM30.2326 22.2247C29.7727 22.2247 29.323 22.1006 28.9406 21.868C28.5582 21.6354 28.2601 21.3048 28.0841 20.9181C27.9081 20.5313 27.862 20.1057 27.9517 19.6952C28.0415 19.2846 28.263 18.9074 28.5882 18.6114C28.9134 18.3154 29.3278 18.1138 29.7789 18.0321C30.2301 17.9505 30.6976 17.9924 31.1226 18.1526C31.5475 18.3128 31.9107 18.5841 32.1663 18.9321C32.4218 19.2802 32.5582 19.6895 32.5582 20.1081C32.5576 20.6693 32.3124 21.2073 31.8764 21.6041C31.4404 22.001 30.8492 22.2242 30.2326 22.2247Z" fill="white"></path>
    <path d="M9.09654 55.5616C9.09654 54.0178 9.77034 52.5373 10.9697 51.4457C12.1691 50.3541 13.7957 49.7408 15.4919 49.7408H67.442C68.0588 49.7408 68.6503 49.5178 69.0864 49.1209C69.5226 48.7239 69.7676 48.1856 69.7676 47.6242C69.7676 47.0628 69.5226 46.5245 69.0864 46.1275C68.6503 45.7306 68.0588 45.5076 67.442 45.5076H15.6977C12.768 45.5076 9.95827 46.5668 7.88664 48.4523C5.81501 50.3378 4.65118 52.8951 4.65118 55.5616C4.65118 58.228 5.81501 60.7853 7.88664 62.6708C9.95827 64.5563 12.768 65.6155 15.6977 65.6155H67.442C68.0588 65.6155 68.6503 65.3925 69.0864 64.9956C69.5226 64.5986 69.7676 64.0603 69.7676 63.4989C69.7676 62.9375 69.5226 62.3992 69.0864 62.0022C68.6503 61.6053 68.0588 61.3823 67.442 61.3823H15.4919C13.7957 61.3823 12.1691 60.769 10.9697 59.6774C9.77034 58.5858 9.09654 57.1053 9.09654 55.5616Z" fill="#DB3A3A"></path>
    <path d="M68.6048 60.5188V50.6045C69.38 50.356 70.0336 49.8658 70.4497 49.2207C70.8659 48.5756 71.0178 47.8173 70.8785 47.0801C70.7392 46.3429 70.3178 45.6743 69.6888 45.1928C69.0598 44.7113 68.2639 44.4479 67.442 44.4493H47.6769C53.2676 42.0099 56.9769 37.6941 56.9769 32.8079C56.9295 31.1198 56.4906 29.4599 55.689 27.9369C54.8875 26.414 53.7413 25.0625 52.3257 23.9709V19.0498C52.3225 16.9693 51.7976 14.917 50.7908 13.0491C55.6152 11.8278 56.9769 6.97124 56.9769 4.23338L56.9711 1.56643L54.9606 3.51373C54.8408 3.63014 51.9571 6.35001 45.2059 6.35001C44.6118 6.35552 44.0202 6.42119 43.442 6.5458C41.401 5.68879 39.1743 5.26089 36.9268 5.29381C34.8895 5.33418 32.8844 5.76587 31.0431 6.56061C30.444 6.42634 29.8298 6.35567 29.2129 6.35001C22.4617 6.35001 19.578 3.63014 19.464 3.52008L17.4419 1.50293V4.23338C17.4419 6.99558 18.8245 11.9125 23.7466 13.0809C22.6613 15.0664 22.0954 17.2534 22.0931 19.471V23.972C20.6776 25.0634 19.5316 26.4148 18.73 27.9375C17.9284 29.4602 17.4895 31.12 17.4419 32.8079C17.4419 37.6962 21.1536 42.012 26.7501 44.4493H15.6977C12.4596 44.4493 9.35413 45.6201 7.06443 47.704C4.77474 49.788 3.4884 52.6145 3.4884 55.5616C3.4884 58.5088 4.77474 61.3352 7.06443 63.4192C9.35413 65.5032 12.4596 66.6739 15.6977 66.6739H67.442C68.2639 66.6753 69.0598 66.412 69.6888 65.9305C70.3178 65.4489 70.7392 64.7804 70.8785 64.0431C71.0178 63.3059 70.8659 62.5476 70.4497 61.9025C70.0336 61.2575 69.38 60.7673 68.6048 60.5188ZM66.2792 56.0908H55.8141V58.2074H66.2792V60.324H15.4919C14.1042 60.324 12.7732 59.8223 11.7919 58.9292C10.8106 58.036 10.2593 56.8247 10.2593 55.5616C10.2593 54.2985 10.8106 53.0872 11.7919 52.1941C12.7732 51.301 14.1042 50.7992 15.4919 50.7992H66.2792V56.0908ZM24.4187 23.7148V19.471C24.4207 17.3196 25.0438 15.2065 26.2257 13.3433C28.1334 13.3854 30.0114 13.7835 31.7431 14.5132C33.4749 15.2428 35.0235 16.2884 36.2931 17.5851L37.2094 18.654L38.1257 17.5851C39.4025 16.2691 40.9683 15.2113 42.722 14.48C44.4756 13.7487 46.3782 13.36 48.3071 13.3391C49.4062 15.0768 49.9896 17.0448 50.0001 19.0498V23.7148C48.5775 24.4853 47.4003 25.58 46.5846 26.8911C45.769 28.2021 45.343 29.6841 45.3489 31.1908V37.0411C45.3489 38.0557 45.1199 39.0595 44.6761 39.9902C44.2323 40.921 43.5833 41.7588 42.7691 42.4519C41.955 43.145 40.9931 43.6785 39.9431 44.0193C38.8932 44.3602 37.7775 44.5011 36.6652 44.4334C34.5659 44.2658 32.6146 43.3797 31.205 41.9539C29.7954 40.5281 29.0323 38.6689 29.0698 36.7511V31.1908C29.0758 29.6841 28.6498 28.2021 27.8342 26.8911C27.0185 25.58 25.8413 24.4853 24.4187 23.7148ZM54.6513 32.8079C54.6513 37.2549 50.8548 41.1506 45.2687 43.101C46.8172 41.3954 47.6675 39.2537 47.6745 37.0411V31.1908C47.6714 30.0979 47.9687 29.0216 48.5394 28.0601C49.1101 27.0985 49.936 26.2822 50.942 25.6854C52.0661 26.5759 52.9759 27.6683 53.6142 28.8939C54.2525 30.1196 54.6056 31.4521 54.6513 32.8079ZM54.3141 6.52569C53.7583 8.564 52.2862 11.2193 48.3885 11.2193C44.9803 11.2182 41.6619 12.2144 38.9234 14.0609C39.6606 11.5844 41.3559 8.46664 45.2059 8.46664C48.3745 8.54049 51.5108 7.87214 54.3141 6.52569ZM36.9699 7.41044C38.1464 7.39143 39.3199 7.52542 40.4548 7.80837C38.9729 8.91341 37.8507 10.3658 37.2094 12.0088C36.5699 10.3706 35.4529 8.92158 33.978 7.81683C34.9525 7.56724 35.9578 7.43069 36.9699 7.41044ZM20.114 6.53098C22.9152 7.87374 26.048 8.54019 29.2129 8.46664C33.0629 8.46664 34.7582 11.5855 35.4954 14.0609C32.7568 12.2144 29.4385 11.2182 26.0303 11.2193C22.1559 11.2193 20.678 8.56929 20.114 6.53098ZM19.7675 32.8079C19.8132 31.4521 20.1663 30.1196 20.8046 28.8939C21.4429 27.6683 22.3527 26.5759 23.4768 25.6854C24.4828 26.2822 25.3087 27.0985 25.8794 28.0601C26.4501 29.0216 26.7474 30.0979 26.7443 31.1908V36.7511C26.7413 39.0762 27.6314 41.3291 29.2605 43.1201C23.6163 41.1865 19.7675 37.2824 19.7675 32.8079ZM67.442 64.5573H15.6977C13.0764 64.5573 10.5624 63.6095 8.70887 61.9225C6.85531 60.2355 5.81399 57.9474 5.81399 55.5616C5.81399 53.1758 6.85531 50.8877 8.70887 49.2007C10.5624 47.5137 13.0764 46.566 15.6977 46.566H67.442C67.7504 46.566 68.0462 46.6775 68.2642 46.8759C68.4823 47.0744 68.6048 47.3436 68.6048 47.6243C68.6048 47.9049 68.4823 48.1741 68.2642 48.3726C68.0462 48.5711 67.7504 48.6826 67.442 48.6826H15.4919C13.4874 48.6826 11.5649 49.4073 10.1475 50.6974C8.73006 51.9875 7.93376 53.7372 7.93376 55.5616C7.93376 57.3861 8.73006 59.1358 10.1475 60.4258C11.5649 61.7159 13.4874 62.4407 15.4919 62.4407H67.442C67.7504 62.4407 68.0462 62.5522 68.2642 62.7506C68.4823 62.9491 68.6048 63.2183 68.6048 63.499C68.6048 63.7797 68.4823 64.0488 68.2642 64.2473C68.0462 64.4458 67.7504 64.5573 67.442 64.5573Z" fill="black"></path>
    <path d="M36.0466 22.2247H38.3722V26.4579H36.0466V22.2247ZM44.1861 23.283C44.8761 23.283 45.5505 23.0968 46.1242 22.7479C46.6978 22.3991 47.1449 21.9032 47.409 21.323C47.673 20.7429 47.7421 20.1045 47.6075 19.4886C47.4729 18.8728 47.1406 18.307 46.6528 17.863C46.1649 17.419 45.5434 17.1166 44.8667 16.9941C44.19 16.8716 43.4886 16.9345 42.8512 17.1748C42.2138 17.4151 41.669 17.822 41.2856 18.3441C40.9023 18.8663 40.6977 19.4801 40.6977 20.108C40.6987 20.9498 41.0665 21.7569 41.7205 22.3521C42.3745 22.9474 43.2612 23.2822 44.1861 23.283ZM44.1861 19.0497C44.4161 19.0497 44.6409 19.1118 44.8321 19.2281C45.0234 19.3444 45.1724 19.5097 45.2604 19.7031C45.3484 19.8964 45.3714 20.1092 45.3266 20.3145C45.2817 20.5198 45.171 20.7084 45.0083 20.8564C44.8457 21.0044 44.6385 21.1052 44.413 21.146C44.1874 21.1869 43.9536 21.1659 43.7411 21.0858C43.5287 21.0057 43.3471 20.8701 43.2193 20.696C43.0915 20.522 43.0233 20.3174 43.0233 20.108C43.0236 19.8275 43.1462 19.5584 43.3642 19.36C43.5822 19.1616 43.8778 19.05 44.1861 19.0497ZM33.721 20.108C33.721 19.4801 33.5164 18.8663 33.1331 18.3441C32.7498 17.822 32.205 17.4151 31.5676 17.1748C30.9301 16.9345 30.2287 16.8716 29.5521 16.9941C28.8754 17.1166 28.2538 17.419 27.7659 17.863C27.2781 18.307 26.9459 18.8728 26.8113 19.4886C26.6767 20.1045 26.7457 20.7429 27.0098 21.323C27.2738 21.9032 27.7209 22.3991 28.2946 22.7479C28.8682 23.0968 29.5427 23.283 30.2326 23.283C31.1575 23.2822 32.0442 22.9474 32.6982 22.3521C33.3522 21.7569 33.7201 20.9498 33.721 20.108ZM29.0698 20.108C29.0698 19.8987 29.138 19.6941 29.2658 19.5201C29.3935 19.346 29.5752 19.2104 29.7876 19.1303C30.0001 19.0502 30.2339 19.0292 30.4595 19.0701C30.685 19.1109 30.8922 19.2117 31.0548 19.3597C31.2174 19.5077 31.3282 19.6963 31.3731 19.9016C31.4179 20.1069 31.3949 20.3197 31.3069 20.513C31.2189 20.7064 31.0698 20.8717 30.8786 20.988C30.6874 21.1043 30.4626 21.1664 30.2326 21.1664C29.9243 21.1661 29.6287 21.0545 29.4107 20.8561C29.1927 20.6577 29.0701 20.3886 29.0698 20.108ZM46.5117 52.9158H52.3257V55.0324H46.5117V52.9158ZM18.6047 56.0907H40.6977V58.2074H18.6047V56.0907Z" fill="black"></path>
  </symbol>
</svg>